<?xml version="1.0" standalone="no"?>
<!DOCTYPE svg PUBLIC "-//W3C//DTD SVG 20010904//EN"
 "http://www.w3.org/TR/2001/REC-SVG-20010904/DTD/svg10.dtd">
<svg version="1.0" xmlns="http://www.w3.org/2000/svg"
 width="512.000000pt" height="512.000000pt" viewBox="0 0 512.000000 512.000000"
 preserveAspectRatio="xMidYMid meet">
<metadata>
Created by potrace 1.14, written by Peter Selinger 2001-2017
</metadata>
<g transform="translate(0.000000,512.000000) scale(0.100000,-0.100000)"
fill="#000000" stroke="none">
<path d="M2315 5109 c-800 -83 -1501 -518 -1927 -1196 -487 -774 -516 -1777
-75 -2578 200 -364 487 -676 841 -913 238 -159 600 -311 876 -366 214 -43 295
-51 530 -51 236 0 333 10 532 51 880 184 1615 842 1898 1702 92 278 125 491
125 802 0 301 -32 513 -116 775 -124 390 -330 728 -622 1024 -399 404 -893
653 -1462 737 -123 18 -478 26 -600 13z m-218 -1191 c54 -58 423 -603 423
-624 0 -38 -35 -54 -117 -54 l-73 0 0 -435 0 -435 -295 0 -295 0 0 435 0 435
-68 0 c-76 0 -112 17 -112 54 0 22 407 621 434 638 24 16 82 8 103 -14z m1463
-1272 l0 -1295 -52 -6 c-29 -4 -305 -5 -613 -3 l-560 3 -3 -65 c-3 -72 -20
-100 -60 -100 -26 0 -656 389 -679 419 -19 25 -15 55 10 78 41 39 648 413 670
413 42 0 57 -27 57 -107 l0 -73 320 0 320 0 0 1015 0 1015 295 0 295 0 0
-1294z"/>
</g>
</svg>
