<?xml version="1.0" encoding="utf-8"?>
<!-- Generator: Adobe Illustrator 26.0.0, SVG Export Plug-In . SVG Version: 6.00 Build 0)  -->
<svg version="1.1" id="_x32_1_seed" xmlns="http://www.w3.org/2000/svg" xmlns:xlink="http://www.w3.org/1999/xlink" x="0px"
	 y="0px" viewBox="0 0 300 191.55" style="enable-background:new 0 0 300 191.55;" xml:space="preserve">
<style type="text/css">
	.st0{fill:none;stroke:#F3BA2F;stroke-width:14.4732;stroke-linecap:round;stroke-linejoin:round;stroke-miterlimit:10;}
	.st1{enable-background:new    ;}
	.st2{fill:#000000;}
	.st3{fill:#F3BA2F;}
</style>
<g>
	<g>
		<polygon class="st0" points="14.79,151.97 52.8,125.87 52.8,178.06 		"/>
		<polyline class="st0" points="288.91,102.28 288.91,151.97 52.8,151.97 		"/>
	</g>
	<g>
		<polygon class="st0" points="288.91,43.58 250.89,69.67 250.89,17.48 		"/>
		<polyline class="st0" points="14.79,93.27 14.79,43.58 250.89,43.58 		"/>
	</g>
</g>
<g class="st1">
	<path class="st2" d="M47.09,104.38c-0.37,0.8-0.89,1.46-1.55,2.01c-0.67,0.54-1.46,0.96-2.38,1.24c-0.92,0.29-1.94,0.43-3.06,0.43
		c-1.57,0-3.12-0.27-4.63-0.81c-1.52-0.54-2.89-1.37-4.13-2.49l2.69-3.22c0.94,0.77,1.91,1.38,2.91,1.83
		c0.99,0.45,2.08,0.68,3.26,0.68c0.94,0,1.68-0.17,2.2-0.52c0.52-0.34,0.78-0.82,0.78-1.43v-0.06c0-0.29-0.05-0.55-0.16-0.78
		c-0.11-0.23-0.32-0.44-0.62-0.63c-0.31-0.2-0.73-0.39-1.27-0.59c-0.54-0.2-1.25-0.4-2.12-0.62c-1.05-0.26-1.99-0.54-2.84-0.86
		c-0.85-0.31-1.57-0.7-2.16-1.16c-0.59-0.46-1.05-1.04-1.38-1.73s-0.49-1.54-0.49-2.57v-0.06c0-0.94,0.18-1.79,0.53-2.55
		c0.35-0.76,0.85-1.41,1.48-1.96s1.39-0.97,2.28-1.27s1.85-0.44,2.92-0.44c1.52,0,2.91,0.23,4.18,0.68c1.27,0.45,2.43,1.1,3.5,1.95
		l-2.36,3.42c-0.93-0.63-1.83-1.13-2.72-1.49s-1.77-0.55-2.66-0.55c-0.89,0-1.55,0.17-1.99,0.52c-0.44,0.34-0.66,0.77-0.66,1.28
		v0.06c0,0.33,0.06,0.62,0.19,0.87c0.13,0.25,0.36,0.47,0.7,0.66c0.33,0.2,0.79,0.38,1.38,0.56c0.58,0.18,1.32,0.38,2.2,0.62
		c1.05,0.28,1.98,0.59,2.8,0.93c0.82,0.34,1.51,0.76,2.07,1.24c0.56,0.48,0.99,1.05,1.27,1.7c0.29,0.65,0.43,1.43,0.43,2.33v0.06
		C47.64,102.68,47.46,103.59,47.09,104.38z"/>
	<path class="st2" d="M51.6,107.76V87.1h15.55v4.04H56.08v4.19h9.74v4.04h-9.74v4.34H67.3v4.04H51.6z"/>
	<path class="st2" d="M71.37,107.76V87.1h15.55v4.04H75.86v4.19h9.74v4.04h-9.74v4.34h11.21v4.04H71.37z"/>
	<path class="st2" d="M109.38,101.5c-0.53,1.26-1.28,2.35-2.26,3.28c-0.97,0.92-2.13,1.65-3.48,2.18s-2.83,0.8-4.44,0.8h-8.06V87.1
		h8.06c1.61,0,3.09,0.26,4.44,0.78s2.51,1.24,3.48,2.17c0.97,0.92,1.73,2.01,2.26,3.26c0.53,1.25,0.8,2.6,0.8,4.06v0.06
		C110.18,98.89,109.91,100.25,109.38,101.5z M105.43,97.43c0-0.9-0.15-1.74-0.46-2.51c-0.31-0.77-0.73-1.43-1.27-1.98
		c-0.54-0.55-1.2-0.98-1.96-1.28c-0.77-0.3-1.61-0.46-2.54-0.46h-3.51v12.45h3.51c0.92,0,1.77-0.15,2.54-0.44
		c0.77-0.29,1.42-0.72,1.96-1.27c0.54-0.55,0.96-1.2,1.27-1.95c0.3-0.75,0.46-1.58,0.46-2.51V97.43z"/>
	<path class="st2" d="M128.6,104.38c-0.37,0.8-0.89,1.46-1.55,2.01c-0.67,0.54-1.46,0.96-2.38,1.24c-0.92,0.29-1.94,0.43-3.06,0.43
		c-1.57,0-3.12-0.27-4.63-0.81c-1.52-0.54-2.89-1.37-4.13-2.49l2.69-3.22c0.94,0.77,1.91,1.38,2.91,1.83
		c0.99,0.45,2.08,0.68,3.26,0.68c0.94,0,1.68-0.17,2.2-0.52c0.52-0.34,0.78-0.82,0.78-1.43v-0.06c0-0.29-0.05-0.55-0.16-0.78
		c-0.11-0.23-0.32-0.44-0.62-0.63c-0.31-0.2-0.73-0.39-1.27-0.59c-0.54-0.2-1.25-0.4-2.12-0.62c-1.05-0.26-1.99-0.54-2.84-0.86
		c-0.85-0.31-1.57-0.7-2.16-1.16c-0.59-0.46-1.05-1.04-1.38-1.73s-0.49-1.54-0.49-2.57v-0.06c0-0.94,0.18-1.79,0.53-2.55
		c0.35-0.76,0.85-1.41,1.48-1.96s1.39-0.97,2.28-1.27s1.85-0.44,2.92-0.44c1.52,0,2.91,0.23,4.18,0.68c1.27,0.45,2.43,1.1,3.5,1.95
		l-2.36,3.42c-0.93-0.63-1.83-1.13-2.72-1.49s-1.77-0.55-2.66-0.55c-0.89,0-1.55,0.17-1.99,0.52c-0.44,0.34-0.66,0.77-0.66,1.28
		v0.06c0,0.33,0.06,0.62,0.19,0.87c0.13,0.25,0.36,0.47,0.7,0.66c0.33,0.2,0.79,0.38,1.38,0.56c0.58,0.18,1.32,0.38,2.2,0.62
		c1.05,0.28,1.98,0.59,2.8,0.93c0.82,0.34,1.51,0.76,2.07,1.24c0.56,0.48,0.99,1.05,1.27,1.7c0.29,0.65,0.43,1.43,0.43,2.33v0.06
		C129.15,102.68,128.97,103.59,128.6,104.38z"/>
	<path class="st2" d="M146.03,107.76v-8.29h-8.38v8.29h-4.54V87.1h4.54v8.17h8.38V87.1h4.54v20.66H146.03z"/>
	<path class="st2" d="M172.58,102.86c-0.42,1.16-1.03,2.13-1.81,2.91c-0.79,0.78-1.74,1.36-2.86,1.74
		c-1.12,0.38-2.37,0.58-3.75,0.58c-2.77,0-4.96-0.77-6.55-2.3c-1.59-1.53-2.39-3.83-2.39-6.88V87.1h4.54v11.69
		c0,1.69,0.39,2.97,1.18,3.82s1.88,1.28,3.28,1.28c1.4,0,2.49-0.41,3.28-1.24s1.18-2.07,1.18-3.72V87.1h4.54v11.66
		C173.21,100.33,173,101.7,172.58,102.86z"/>
	<path class="st2" d="M182.39,91.21v4.46h9.86v4.1h-9.86v8h-4.54V87.1h15.73v4.1H182.39z"/>
	<path class="st2" d="M201.75,91.21v4.46h9.86v4.1h-9.86v8h-4.54V87.1h15.73v4.1H201.75z"/>
	<path class="st2" d="M216.57,107.76V87.1h4.54v16.56h10.3v4.1H216.57z"/>
	<path class="st2" d="M234.83,107.76V87.1h15.55v4.04h-11.07v4.19h9.74v4.04h-9.74v4.34h11.21v4.04H234.83z"/>
	<path class="st2" d="M267.15,107.76l-4.43-6.61h-3.57v6.61h-4.54V87.1h9.44c2.46,0,4.37,0.6,5.74,1.8c1.37,1.2,2.05,2.87,2.05,5.02
		v0.06c0,1.67-0.41,3.03-1.22,4.09s-1.88,1.83-3.2,2.32l5.05,7.38H267.15z M267.24,94.16c0-0.98-0.32-1.72-0.94-2.21
		c-0.63-0.49-1.5-0.74-2.63-0.74h-4.51v5.93h4.6c1.12,0,1.98-0.27,2.58-0.8c0.6-0.53,0.9-1.24,0.9-2.12V94.16z"/>
</g>
<rect style="fill:#F3BA2F" x="26.36" y="139.06" class="st2" width="24.58" height="27.69"/>
<rect style="fill:#F3BA2F" x="252.8" y="28.29" class="st2" width="24.58" height="27.69"/>
</svg>
