<?xml version="1.0" encoding="UTF-8" standalone="no"?>
<svg
   xmlns:dc="http://purl.org/dc/elements/1.1/"
   xmlns:cc="http://creativecommons.org/ns#"
   xmlns:rdf="http://www.w3.org/1999/02/22-rdf-syntax-ns#"
   xmlns:svg="http://www.w3.org/2000/svg"
   xmlns="http://www.w3.org/2000/svg"
   xmlns:sodipodi="http://sodipodi.sourceforge.net/DTD/sodipodi-0.dtd"
   xmlns:inkscape="http://www.inkscape.org/namespaces/inkscape"
   version="1.1"
   id="_x32_1_seed"
   x="0px"
   y="0px"
   viewBox="0 0 80 80"
   xml:space="preserve"
   sodipodi:docname="seedshuffler-icon.svg"
   inkscape:version="1.0.2 (1.0.2+r75+1)"
   width="80"
   height="80"><metadata
   id="metadata31"><rdf:RDF><cc:Work
       rdf:about=""><dc:format>image/svg+xml</dc:format><dc:type
         rdf:resource="http://purl.org/dc/dcmitype/StillImage" /><dc:title /></cc:Work></rdf:RDF></metadata><defs
   id="defs29" /><sodipodi:namedview
   pagecolor="#ffffff"
   bordercolor="#666666"
   borderopacity="1"
   objecttolerance="10"
   gridtolerance="10"
   guidetolerance="10"
   inkscape:pageopacity="0"
   inkscape:pageshadow="2"
   inkscape:window-width="2560"
   inkscape:window-height="1403"
   id="namedview27"
   showgrid="false"
   inkscape:zoom="6.7307373"
   inkscape:cx="148"
   inkscape:cy="52.479255"
   inkscape:window-x="782"
   inkscape:window-y="0"
   inkscape:window-maximized="1"
   inkscape:current-layer="_x32_1_seed"
   inkscape:document-rotation="0"
   fit-margin-top="0"
   fit-margin-left="0"
   fit-margin-right="0"
   fit-margin-bottom="0" />


<circle
   cx="40"
   cy="40"
   fill="#f3ba2f"
   id="circle4"
   r="40" />

<g
   id="g24"
   transform="matrix(1.7337811,0,0,1.6435861,-241.80904,7.5435351)"
   style="opacity:1">
	<g
   id="g22">

		<rect
   x="155.10001"
   y="11.1"
   fill="#000000"
   width="5.4000001"
   height="10.5"
   id="rect12" />
		<rect
   x="160"
   y="25.9"
   fill="#000000"
   width="11.1"
   height="5.4000001"
   id="rect14" />
		<rect
   x="166.2"
   y="6.5999999"
   fill="#000000"
   width="5.4000001"
   height="24.700001"
   id="rect16" />
		<path
   fill="#000000"
   d="m 154,29.1 5.6,3.7 c 0.4,0.3 0.9,0 0.9,-0.5 v -7.5 c 0,-0.5 -0.5,-0.8 -0.9,-0.5 L 154,28 c -0.4,0.3 -0.4,0.8 0,1.1 z"
   id="path18" />
		<path
   fill="#000000"
   d="m 157.3,6.8 -3.7,5.6 c -0.3,0.4 0,0.9 0.5,0.9 h 7.5 c 0.5,0 0.8,-0.5 0.5,-0.9 l -3.7,-5.6 c -0.3,-0.3 -0.8,-0.3 -1.1,0 z"
   id="path20" />
	</g>	
</g>
</svg>
