<svg version="1.1" id="_x32_1_seed" xmlns="http://www.w3.org/2000/svg" xmlns:xlink="http://www.w3.org/1999/xlink" x="0px"
	 y="0px" viewBox="0 0 300 38" style="enable-background:new 0 0 300 38;" xml:space="preserve">
<style type="text/css">
	.st0{enable-background:new    ;}
	.st1{fill:#F3BA2F;}
</style>
<rect x="113.9" y="84.8" width="26.4" height="22"/>
<g>
	<path d="M-81.8,9c0-0.5-0.4-0.9-0.9-0.9h-5v-26.2h2.2c0.3,0,0.6-0.2,0.8-0.5c0.1-0.3,0.1-0.6-0.1-0.9l-3.1-4.5
		c-0.2-0.2-0.4-0.4-0.7-0.4c-0.3,0-0.5,0.1-0.7,0.4l-3.1,4.5c-0.1,0.1-0.2,0.3-0.2,0.5c0,0.1,0,0.3,0.1,0.4c0.1,0.3,0.4,0.5,0.8,0.5
		h2.2V9.1c0,0.5,0.4,0.9,0.9,0.9h5.9C-82.2,9.9-81.8,9.5-81.8,9z"/>
	<path d="M-82.4-23.5c0,0.5,0.4,0.9,0.9,0.9h5V3.7h-2.2c-0.3,0-0.6,0.2-0.8,0.5c-0.1,0.1-0.1,0.3-0.1,0.4c0,0.2,0.1,0.3,0.2,0.5
		l3.1,4.5c0.1,0.2,0.3,0.3,0.6,0.3s0.5-0.1,0.7-0.4l3.1-4.5c0.2-0.3,0.2-0.6,0.1-0.9s-0.4-0.5-0.8-0.5h-2.2v-27.2
		c0-0.5-0.4-0.9-0.9-0.9h-5.9C-82.1-24.3-82.4-24-82.4-23.5z"/>
</g>
<g>
	<g>
		<g class="st0">
			<path class="st1" d="M24.7,27.2c-0.4,1-1.1,1.7-1.9,2.4c-0.8,0.7-1.7,1.2-2.8,1.5s-2.3,0.5-3.7,0.5c-1.9,0-3.7-0.3-5.5-1
				C9,30,7.3,29,5.9,27.6l3.2-3.8c1.1,0.9,2.3,1.6,3.5,2.2c1.2,0.5,2.5,0.8,3.9,0.8c1.1,0,2-0.2,2.6-0.6s0.9-1,0.9-1.7v-0.1
				c0-0.3-0.1-0.7-0.2-0.9c-0.1-0.3-0.4-0.5-0.7-0.8c-0.4-0.2-0.9-0.5-1.5-0.7s-1.5-0.5-2.5-0.7c-1.3-0.3-2.4-0.6-3.4-1
				s-1.9-0.8-2.6-1.4c-0.7-0.5-1.3-1.2-1.6-2.1C7.1,16,6.9,15,6.9,13.7v-0.1c0-1.1,0.2-2.1,0.6-3s1-1.7,1.8-2.3
				C10.1,7.6,11,7.1,12,6.8c1.1-0.4,2.2-0.5,3.5-0.5c1.8,0,3.5,0.3,5,0.8s2.9,1.3,4.2,2.3l-2.8,4.1c-1.1-0.8-2.2-1.4-3.3-1.8
				c-1.1-0.4-2.1-0.7-3.2-0.7s-1.9,0.2-2.4,0.6c-0.5,0.4-0.8,0.9-0.8,1.5v0.2c0,0.4,0.1,0.7,0.2,1c0.2,0.3,0.4,0.6,0.8,0.8
				c0.4,0.2,0.9,0.5,1.6,0.7c0.7,0.2,1.6,0.5,2.6,0.7c1.3,0.3,2.4,0.7,3.3,1.1c1,0.4,1.8,0.9,2.5,1.5s1.2,1.3,1.5,2
				c0.3,0.8,0.5,1.7,0.5,2.8V24C25.3,25.2,25.1,26.3,24.7,27.2z"/>
			<path class="st1" d="M30.1,31.3V6.6h18.6v4.8H35.4v5H47v4.8H35.4v5.2h13.4v4.9L30.1,31.3L30.1,31.3z"/>
			<path class="st1" d="M53.7,31.3V6.6h18.6v4.8H59.1v5h11.6v4.8H59.1v5.2h13.4v4.9L53.7,31.3L53.7,31.3z"/>
			<path class="st1" d="M99.2,23.8c-0.6,1.5-1.5,2.8-2.7,3.9s-2.5,2-4.2,2.6c-1.6,0.6-3.4,1-5.3,1h-9.6V6.6H87
				c1.9,0,3.7,0.3,5.3,0.9s3,1.5,4.2,2.6s2.1,2.4,2.7,3.9s1,3.1,1,4.9V19C100.1,20.7,99.8,22.3,99.2,23.8z M94.4,18.9
				c0-1.1-0.2-2.1-0.5-3c-0.4-0.9-0.9-1.7-1.5-2.4S91,12.3,90.1,12c-0.9-0.4-1.9-0.5-3-0.5h-4.2v14.9H87c1.1,0,2.1-0.2,3-0.5
				s1.7-0.9,2.3-1.5c0.6-0.7,1.1-1.4,1.5-2.3C94.2,21.1,94.4,20.1,94.4,18.9L94.4,18.9z"/>
			<path class="st1" d="M122.1,27.2c-0.4,1-1.1,1.7-1.9,2.4c-0.8,0.6-1.7,1.1-2.8,1.5c-1.1,0.3-2.3,0.5-3.7,0.5
				c-1.9,0-3.7-0.3-5.5-1c-1.8-0.6-3.5-1.6-4.9-3l3.2-3.8c1.1,0.9,2.3,1.6,3.5,2.2c1.2,0.5,2.5,0.8,3.9,0.8c1.1,0,2-0.2,2.6-0.6
				s0.9-1,0.9-1.7v-0.1c0-0.3-0.1-0.7-0.2-0.9c-0.1-0.3-0.4-0.5-0.7-0.8c-0.4-0.2-0.9-0.5-1.5-0.7s-1.5-0.5-2.5-0.7
				c-1.3-0.3-2.4-0.6-3.4-1s-1.9-0.8-2.6-1.4c-0.7-0.5-1.3-1.2-1.6-2.1c-0.4-0.8-0.6-1.8-0.6-3.1v-0.1c0-1.1,0.2-2.1,0.6-3
				s1-1.7,1.8-2.3c0.8-0.7,1.7-1.2,2.7-1.5c1.1-0.4,2.2-0.5,3.5-0.5c1.8,0,3.5,0.3,5,0.8s2.9,1.3,4.2,2.3l-2.8,4.1
				c-1.1-0.8-2.2-1.4-3.3-1.8c-1.1-0.4-2.1-0.7-3.2-0.7s-1.9,0.2-2.4,0.6c-0.5,0.4-0.8,0.9-0.8,1.5v0.2c0,0.4,0.1,0.7,0.2,1
				s0.4,0.6,0.8,0.8s0.9,0.5,1.6,0.7s1.6,0.5,2.6,0.7c1.3,0.3,2.4,0.7,3.3,1.1c1,0.4,1.8,0.9,2.5,1.5s1.2,1.3,1.5,2
				c0.3,0.8,0.5,1.7,0.5,2.8V24C122.8,25.2,122.6,26.3,122.1,27.2z"/>
			<path class="st1" d="M143,31.3v-9.9h-10v9.9h-5.4V6.6h5.4v9.7h10V6.6h5.4v24.7C148.4,31.3,143,31.3,143,31.3z"/>
			<path class="st1" d="M186.4,11.5v5.3h11.8v4.9h-11.8v9.6H181V6.6h18.8v4.9H186.4L186.4,11.5z"/>
			<path class="st1" d="M209.6,11.5v5.3h11.8v4.9h-11.8v9.6h-5.4V6.6H223v4.9H209.6L209.6,11.5z"/>
			<path class="st1" d="M227.3,31.3V6.6h5.4v19.8H245v4.9C245.1,31.3,227.3,31.3,227.3,31.3z"/>
			<path class="st1" d="M249.1,31.3V6.6h18.6v4.8h-13.2v5h11.6v4.8h-11.6v5.2h13.4v4.9L249.1,31.3L249.1,31.3z"/>
			<path class="st1" d="M287.8,31.3l-5.3-7.9h-4.3v7.9h-5.4V6.6h11.3c2.9,0,5.2,0.7,6.9,2.2c1.6,1.4,2.5,3.4,2.5,6v0.1
				c0,2-0.5,3.6-1.5,4.9s-2.2,2.2-3.8,2.8l6,8.8L287.8,31.3L287.8,31.3z M287.9,15c0-1.2-0.4-2.1-1.1-2.6c-0.8-0.6-1.8-0.9-3.1-0.9
				h-5.4v7.1h5.5c1.3,0,2.4-0.3,3.1-1C287.5,17,287.9,16.1,287.9,15L287.9,15L287.9,15z"/>
		</g>
		<rect x="155.1" y="11.1" class="st1" width="5.4" height="10.5"/>
		<rect x="160.5" y="25.8" class="st1" width="11.1" height="5.4"/>
		<rect x="166.2" y="6.6" class="st1" width="5.4" height="24.7"/>
		<path class="st1" d="M154,28.7l5.6,3.7c0.4,0.3,0.9,0,0.9-0.5v-7.5c0-0.5-0.5-0.8-0.9-0.5l-5.6,3.7
			C153.6,27.9,153.6,28.4,154,28.7z"/>
		<path class="st1" d="M157.3,6.8l-3.7,5.6c-0.3,0.4,0,0.9,0.5,0.9h7.5c0.5,0,0.8-0.5,0.5-0.9l-3.7-5.6
			C158.1,6.5,157.6,6.5,157.3,6.8z"/>
	</g>	
</g>
<g>
	<path class="st1" d="M129.6,86.8v13.3h-3.9v-1c0-0.3-0.3-0.6-0.6-0.3l-3.9,2.6c-0.3,0.2-0.3,0.6,0,0.8l3.9,2.6
		c0.3,0.2,0.6,0,0.6-0.3v-0.5h7.7v0v-3.7V86.8H129.6z"/>
	<path class="st1" d="M121.9,91.5v5.7h3.7v-5.7h0.8c0.3,0,0.6-0.3,0.3-0.6l-2.6-3.9c-0.2-0.2-0.6-0.2-0.8,0l-2.6,3.9
		c-0.2,0.3,0,0.6,0.3,0.6H121.9z"/>
</g>
</svg>
